<svg width="1280" height="640" viewBox="0 0 1280 640" fill="none" xmlns="http://www.w3.org/2000/svg">
  <defs>
    <linearGradient id="bg" x1="0" y1="0" x2="1280" y2="640" gradientUnits="userSpaceOnUse">
      <stop stop-color="#020617"/>
      <stop offset="0.55" stop-color="#0B1220"/>
      <stop offset="1" stop-color="#111827"/>
    </linearGradient>
    <linearGradient id="lineA" x1="84" y1="500" x2="1190" y2="180" gradientUnits="userSpaceOnUse">
      <stop stop-color="#22C55E" stop-opacity="0.12"/>
      <stop offset="0.55" stop-color="#38BDF8" stop-opacity="0.28"/>
      <stop offset="1" stop-color="#A78BFA" stop-opacity="0.12"/>
    </linearGradient>
    <linearGradient id="cardStroke" x1="0" y1="0" x2="1" y2="1">
      <stop stop-color="#475569" stop-opacity="0.7"/>
      <stop offset="1" stop-color="#1E293B" stop-opacity="0.4"/>
    </linearGradient>
    <filter id="softGlow" x="-20%" y="-20%" width="140%" height="140%">
      <feGaussianBlur stdDeviation="18" result="blur"/>
      <feMerge>
        <feMergeNode in="blur"/>
        <feMergeNode in="SourceGraphic"/>
      </feMerge>
    </filter>
  </defs>

  <rect width="1280" height="640" fill="url(#bg)"/>
  <circle cx="1056" cy="144" r="180" fill="#38BDF8" fill-opacity="0.08"/>
  <circle cx="184" cy="548" r="220" fill="#22C55E" fill-opacity="0.08"/>

  <path d="M88 504C264 428 412 548 610 424C792 310 986 396 1192 210" stroke="url(#lineA)" stroke-width="22" stroke-linecap="round" filter="url(#softGlow)"/>
  <path d="M88 556C296 480 480 590 708 466C880 372 1036 406 1192 326" stroke="#22C55E" stroke-opacity="0.18" stroke-width="10" stroke-linecap="round"/>

  <g opacity="0.92">
    <rect x="74" y="72" width="1132" height="496" rx="30" fill="#0B1220" fill-opacity="0.45" stroke="url(#cardStroke)"/>
    <rect x="104" y="102" width="676" height="250" rx="24" fill="#09111F" fill-opacity="0.86" stroke="url(#cardStroke)"/>
    <rect x="804" y="102" width="372" height="206" rx="24" fill="#09111F" fill-opacity="0.86" stroke="url(#cardStroke)"/>
    <rect x="804" y="330" width="372" height="206" rx="24" fill="#09111F" fill-opacity="0.86" stroke="url(#cardStroke)"/>
    <rect x="104" y="380" width="676" height="156" rx="24" fill="#09111F" fill-opacity="0.86" stroke="url(#cardStroke)"/>
  </g>

  <g font-family="ui-sans-serif, system-ui, -apple-system, Segoe UI, Roboto, Helvetica, Arial" fill="#E2E8F0">
    <text x="118" y="132" font-size="20" letter-spacing="4" opacity="0.72">HEM-CM · OPEN SOURCE</text>
    <text x="118" y="184" font-size="58" font-weight="700">Breaking News →</text>
    <text x="118" y="248" font-size="58" font-weight="700">Causal Chains →</text>
    <text x="118" y="312" font-size="58" font-weight="700">Market Decisions</text>
    <text x="118" y="366" font-size="22" opacity="0.9">Explainable event intelligence for capital markets.</text>
    <text x="118" y="398" font-size="18" opacity="0.78">Real event loops · Multi-horizon paths · Cross-market mapping · Replay labs</text>

    <text x="118" y="452" font-size="20" opacity="0.64">WHAT IT SHIPS</text>
    <text x="118" y="494" font-size="22">Global Overview · Event War Room</text>
    <text x="118" y="528" font-size="22">Market Desk · Backtest Lab</text>
    <text x="118" y="558" font-size="18" opacity="0.78">Local-first workflow from source intake to replayable validation</text>

    <text x="828" y="142" font-size="18" opacity="0.64">EVENT PIPELINE</text>
    <text x="828" y="192" font-size="28">Signal Intake</text>
    <text x="828" y="230" font-size="28">Stage Detection</text>
    <text x="828" y="268" font-size="28">Scenario Paths</text>

    <text x="828" y="370" font-size="18" opacity="0.64">MARKET OUTPUT</text>
    <text x="828" y="418" font-size="24">A-Shares · US Equities</text>
    <text x="828" y="454" font-size="24">Commodities · Risk Appetite</text>
    <text x="828" y="490" font-size="18" opacity="0.78">Next.js · TypeScript · Prisma · SQLite</text>
  </g>
</svg>
